<svg width="657.9px" height="121.3px" xmlns="http://www.w3.org/2000/svg" viewBox="-78.9525146484375 14.359999084472655 657.905029296875 121.28000183105469" style="background: rgba(0, 0, 0, 0)" preserveAspectRatio="xMidYMid"><defs><linearGradient id="editing-gradient-gradient" x1="0" x2="1" y1="0.5" y2="0.5" gradientUnits="objectBoundingBox"><stop offset="0" stop-color="#0077ff"></stop><stop offset="1" stop-color="#ff00d4"></stop></linearGradient></defs><g><g transform="matrix(1.4,0,0,1.4,-64.2,151)"><path d="M 10.5 -36.3 L -3.4 -36.3 L 4.7 -78.5 L 18.8 -78.5 L 10.5 -36.3 Z M 66.3 -35 L 66.3 -35 L 66.3 -35 Q 58.5 -35 58.5 -41 L 58.5 -41 L 58.5 -41 Q 58.5 -43.6 59.6 -48.7 L 59.6 -48.7 L 59.6 -48.7 Q 60.8 -53.8 61.1 -55.8 L 61.1 -55.8 L 61.1 -55.8 Q 62 -60.5 62 -62 L 62 -62 L 62 -62 Q 62 -65.2 59.6 -65.2 L 59.6 -65.2 L 59.6 -65.2 Q 58 -65.2 56.5 -63 L 56.5 -63 L 56.5 -63 Q 54.9 -60.8 54.2 -56.4 L 54.2 -56.4 L 50.3 -36.3 L 37.8 -35 L 41.2 -52.4 L 41.2 -52.4 Q 41.8 -55.3 42.3 -58.5 L 42.3 -58.5 L 42.3 -58.5 Q 42.8 -61.8 42.8 -62.3 L 42.8 -62.3 L 42.8 -62.3 Q 42.8 -65.2 40.7 -65.2 L 40.7 -65.2 L 40.7 -65.2 Q 39.2 -65.2 37.6 -63.1 L 37.6 -63.1 L 37.6 -63.1 Q 36 -60.9 35.1 -56.4 L 35.1 -56.4 L 31.2 -36.3 L 18.6 -35 L 25.3 -68.9 L 35.7 -70.2 L 34.6 -63.7 L 34.6 -63.7 Q 36.3 -67.2 39.4 -68.7 L 39.4 -68.7 L 39.4 -68.7 Q 42.5 -70.2 47.3 -70.2 L 47.3 -70.2 L 47.3 -70.2 Q 50 -70.2 51.8 -68.8 L 51.8 -68.8 L 51.8 -68.8 Q 53.6 -67.5 54.2 -65.3 L 54.2 -65.3 L 54.2 -65.3 Q 55.3 -67.6 58 -68.9 L 58 -68.9 L 58 -68.9 Q 60.8 -70.2 64.2 -70.2 L 64.2 -70.2 L 64.2 -70.2 Q 67.7 -70.2 69.4 -69.4 L 69.4 -69.4 L 69.4 -69.4 Q 71.1 -68.7 72.1 -67.5 L 72.1 -67.5 L 72.1 -67.5 Q 73.8 -65.2 73.8 -61.2 L 73.8 -61.2 L 73.8 -61.2 Q 73.8 -57.1 72.1 -48.7 L 72.1 -48.7 L 72.1 -48.7 Q 71.2 -44.6 71.2 -43.1 L 71.2 -43.1 L 71.2 -43.1 Q 71.2 -41.6 72.1 -40.7 L 72.1 -40.7 L 72.1 -40.7 Q 72.9 -39.8 74.2 -39.7 L 74.2 -39.7 L 74.2 -39.7 Q 73.6 -37.5 71.4 -36.3 L 71.4 -36.3 L 71.4 -36.3 Q 69.1 -35 66.3 -35 Z M 81.9 -38.2 L 81.9 -38.2 L 81.9 -38.2 Q 80.4 -39.8 79.7 -42.5 L 79.7 -42.5 L 79.7 -42.5 Q 79.1 -45.1 79.1 -49.4 L 79.1 -49.4 L 79.1 -49.4 Q 79.1 -53.7 80.5 -57.6 L 80.5 -57.6 L 80.5 -57.6 Q 82 -61.5 84.7 -64.3 L 84.7 -64.3 L 84.7 -64.3 Q 90.2 -70.2 99.3 -70.2 L 99.3 -70.2 L 99.3 -70.2 Q 102.6 -70.2 104.9 -69.1 L 104.9 -69.1 L 115.9 -70.2 L 111.1 -45.2 L 111.1 -45.2 Q 110.9 -44.4 110.9 -43 L 110.9 -43 L 110.9 -43 Q 110.9 -41.6 111.8 -40.7 L 111.8 -40.7 L 111.8 -40.7 Q 112.7 -39.8 113.9 -39.7 L 113.9 -39.7 L 113.9 -39.7 Q 113.3 -37.5 111 -36.3 L 111 -36.3 L 111 -36.3 Q 108.6 -35 106 -35 L 106 -35 L 106 -35 Q 103.4 -35 101.6 -36 L 101.6 -36 L 101.6 -36 Q 99.9 -37 99.4 -38.6 L 99.4 -38.6 L 99.4 -38.6 Q 98.3 -37 96.2 -36 L 96.2 -36 L 96.2 -36 Q 94 -35 91.1 -35 L 91.1 -35 L 91.1 -35 Q 88.2 -35 85.8 -35.7 L 85.8 -35.7 L 85.8 -35.7 Q 83.4 -36.5 81.9 -38.2 Z M 95.4 -64.2 L 95.4 -64.2 L 95.4 -64.2 Q 94.7 -63 94 -61.1 L 94 -61.1 L 94 -61.1 Q 93.4 -59.1 92.3 -53.9 L 92.3 -53.9 L 92.3 -53.9 Q 91.3 -48.7 91.3 -45 L 91.3 -45 L 91.3 -45 Q 91.3 -41.2 91.9 -40.2 L 91.9 -40.2 L 91.9 -40.2 Q 92.4 -39.1 93.5 -39.1 L 93.5 -39.1 L 93.5 -39.1 Q 95.5 -39.1 97 -41 L 97 -41 L 97 -41 Q 98.5 -43 99.1 -46.4 L 99.1 -46.4 L 102.5 -65.2 L 102.5 -65.2 Q 101.1 -66.3 99.6 -66.3 L 99.6 -66.3 L 99.6 -66.3 Q 98 -66.3 97.1 -65.8 L 97.1 -65.8 L 97.1 -65.8 Q 96.2 -65.3 95.4 -64.2 Z M 123.6 -63 L 123.6 -63 L 123.6 -63 Q 125.8 -66.1 129.1 -68.1 L 129.1 -68.1 L 129.1 -68.1 Q 132.4 -70.2 136.4 -70.2 L 136.4 -70.2 L 136.4 -70.2 Q 140.4 -70.2 142.4 -68.9 L 142.4 -68.9 L 154.9 -70.2 L 150.6 -45.6 L 150.6 -45.6 Q 148.3 -33.1 143.6 -28.1 L 143.6 -28.1 L 143.6 -28.1 Q 139 -23.5 130.2 -23.5 L 130.2 -23.5 L 130.2 -23.5 Q 123.5 -23.5 119.6 -25.6 L 119.6 -25.6 L 119.6 -25.6 Q 115.8 -27.7 115.8 -31.2 L 115.8 -31.2 L 115.8 -31.2 Q 115.8 -33.8 117.8 -35.3 L 117.8 -35.3 L 117.8 -35.3 Q 119.8 -36.8 122.8 -36.8 L 122.8 -36.8 L 122.8 -36.8 Q 125.5 -36.8 127.6 -35.6 L 127.6 -35.6 L 127.6 -35.6 Q 128.8 -35 129.4 -34.1 L 129.4 -34.1 L 129.4 -34.1 Q 127.9 -32.8 127.9 -30.7 L 127.9 -30.7 L 127.9 -30.7 Q 127.9 -27.9 130.5 -27.9 L 130.5 -27.9 L 130.5 -27.9 Q 134.7 -27.9 137.2 -38 L 137.2 -38 L 137.2 -38 Q 137.9 -40.8 138.5 -43.6 L 138.5 -43.6 L 138.5 -43.6 Q 135.6 -40 129 -40 L 129 -40 L 129 -40 Q 124.5 -40 121.9 -42.2 L 121.9 -42.2 L 121.9 -42.2 Q 119.3 -44.4 119.3 -49.5 L 119.3 -49.5 L 119.3 -49.5 Q 119.3 -52.7 120.3 -56.3 L 120.3 -56.3 L 120.3 -56.3 Q 121.4 -59.9 123.6 -63 Z M 131.9 -49.3 L 131.9 -49.3 L 131.9 -49.3 Q 131.9 -45 134.2 -45 L 134.2 -45 L 134.2 -45 Q 135.7 -45 137.2 -46.6 L 137.2 -46.6 L 137.2 -46.6 Q 138.3 -48 138.8 -50 L 138.8 -50 L 142 -66.4 L 142 -66.4 Q 141.7 -66.5 141.4 -66.6 L 141.4 -66.6 L 141.4 -66.6 Q 140.8 -66.8 139.9 -66.8 L 139.9 -66.8 L 139.9 -66.8 Q 136 -66.8 133.7 -60.4 L 133.7 -60.4 L 133.7 -60.4 Q 131.9 -55.5 131.9 -49.3 Z M 183.3 -47.1 L 183.3 -47.1 L 183.3 -47.1 Q 184.9 -46 184.9 -43.6 L 184.9 -43.6 L 184.9 -43.6 Q 184.9 -41.2 183.7 -39.6 L 183.7 -39.6 L 183.7 -39.6 Q 182.5 -38.1 180.5 -37.1 L 180.5 -37.1 L 180.5 -37.1 Q 176.4 -35 172 -35 L 172 -35 L 172 -35 Q 167.6 -35 165 -35.9 L 165 -35.9 L 165 -35.9 Q 162.4 -36.9 160.7 -38.7 L 160.7 -38.7 L 160.7 -38.7 Q 157.3 -42.1 157.3 -48.3 L 157.3 -48.3 L 157.3 -48.3 Q 157.3 -58 162.5 -63.8 L 162.5 -63.8 L 162.5 -63.8 Q 168.2 -70.2 177.9 -70.2 L 177.9 -70.2 L 177.9 -70.2 Q 184 -70.2 187 -67.6 L 187 -67.6 L 187 -67.6 Q 189.3 -65.7 189.3 -62.6 L 189.3 -62.6 L 189.3 -62.6 Q 189.3 -51.3 169.8 -51.3 L 169.8 -51.3 L 169.8 -51.3 Q 169.6 -49.6 169.6 -48.2 L 169.6 -48.2 L 169.6 -48.2 Q 169.6 -45.3 170.9 -44.2 L 170.9 -44.2 L 170.9 -44.2 Q 172.2 -43 174.6 -43 L 174.6 -43 L 174.6 -43 Q 177 -43 179.6 -44.2 L 179.6 -44.2 L 179.6 -44.2 Q 182.2 -45.3 183.3 -47.1 Z M 170.3 -54 L 170.3 -54 L 170.3 -54 Q 174.8 -54 177.4 -56.9 L 177.4 -56.9 L 177.4 -56.9 Q 180.1 -59.6 180.1 -63.8 L 180.1 -63.8 L 180.1 -63.8 Q 180.1 -65.3 179.5 -66.1 L 179.5 -66.1 L 179.5 -66.1 Q 179 -66.9 177.9 -66.9 L 177.9 -66.9 L 177.9 -66.9 Q 176.8 -66.9 175.9 -66.5 L 175.9 -66.5 L 175.9 -66.5 Q 174.9 -66.1 174 -64.7 L 174 -64.7 L 174 -64.7 Q 171.6 -61.5 170.3 -54 Z M 210.6 -58.7 L 210.6 -58.7 L 210.6 -58.7 Q 211.5 -61.1 211.5 -63.1 L 211.5 -63.1 L 211.5 -63.1 Q 211.5 -66.9 208.4 -66.9 L 208.4 -66.9 L 208.4 -66.9 Q 206.8 -66.9 205.5 -65.5 L 205.5 -65.5 L 205.5 -65.5 Q 204.2 -64 204.2 -62.2 L 204.2 -62.2 L 204.2 -62.2 Q 204.2 -61 205.2 -59.9 L 205.2 -59.9 L 205.2 -59.9 Q 206.7 -58.5 210.5 -56.2 L 210.5 -56.2 L 210.5 -56.2 Q 214.2 -53.9 215.7 -52 L 215.7 -52 L 215.7 -52 Q 217.1 -50.1 217.1 -47.6 L 217.1 -47.6 L 217.1 -47.6 Q 217.1 -45 215.9 -42.6 L 215.9 -42.6 L 215.9 -42.6 Q 214.6 -40.2 212.4 -38.6 L 212.4 -38.6 L 212.4 -38.6 Q 207.6 -35 199.9 -35 L 199.9 -35 L 199.9 -35 Q 195.7 -35 192.5 -37.2 L 192.5 -37.2 L 192.5 -37.2 Q 189.3 -39.3 189.3 -41.8 L 189.3 -41.8 L 189.3 -41.8 Q 189.3 -44.3 191.2 -45.7 L 191.2 -45.7 L 191.2 -45.7 Q 193 -47.2 195.7 -47.2 L 195.7 -47.2 L 195.7 -47.2 Q 198.4 -47.2 200 -46.2 L 200 -46.2 L 200 -46.2 Q 199.2 -44.1 199.2 -42.7 L 199.2 -42.7 L 199.2 -42.7 Q 199.2 -38.4 202.8 -38.4 L 202.8 -38.4 L 202.8 -38.4 Q 204.3 -38.4 205.3 -39.4 L 205.3 -39.4 L 205.3 -39.4 Q 206.4 -40.4 206.4 -42 L 206.4 -42 L 206.4 -42 Q 206.4 -45.3 200.9 -48.7 L 200.9 -48.7 L 200.9 -48.7 Q 196.4 -51.7 195.4 -52.8 L 195.4 -52.8 L 195.4 -52.8 Q 193.6 -54.9 193.6 -57.4 L 193.6 -57.4 L 193.6 -57.4 Q 193.6 -60 194.8 -62.4 L 194.8 -62.4 L 194.8 -62.4 Q 196.1 -64.9 198.3 -66.6 L 198.3 -66.6 L 198.3 -66.6 Q 203 -70.2 211.1 -70.2 L 211.1 -70.2 L 211.1 -70.2 Q 215.3 -70.2 217.7 -68.5 L 217.7 -68.5 L 217.7 -68.5 Q 220.2 -66.8 220.2 -64 L 220.2 -64 L 220.2 -64 Q 220.2 -61.2 218.5 -59.6 L 218.5 -59.6 L 218.5 -59.6 Q 216.8 -58 213.7 -58 L 213.7 -58 L 213.7 -58 Q 211.6 -58 210.6 -58.7 Z M 261.7 -56.9 L 274.6 -58 L 274.6 -58 Q 270 -47.9 270 -36.2 L 270 -36.2 L 270 -36.2 Q 268.2 -35 265.7 -35 L 265.7 -35 L 265.7 -35 Q 263.2 -35 261.6 -36.2 L 261.6 -36.2 L 261.6 -36.2 Q 260 -37.3 259.7 -38.6 L 259.7 -38.6 L 259.7 -38.6 Q 258.1 -36.9 255.5 -35.9 L 255.5 -35.9 L 255.5 -35.9 Q 252.9 -35 250.1 -35 L 250.1 -35 L 250.1 -35 Q 247.4 -35 245 -35.9 L 245 -35.9 L 245 -35.9 Q 242.6 -36.8 240.7 -38.8 L 240.7 -38.8 L 240.7 -38.8 Q 236.6 -43.1 236.6 -51.4 L 236.6 -51.4 L 236.6 -51.4 Q 236.6 -64.2 243.5 -71.8 L 243.5 -71.8 L 243.5 -71.8 Q 250.5 -79.8 263 -79.8 L 263 -79.8 L 263 -79.8 Q 271.6 -79.8 274.7 -75.3 L 274.7 -75.3 L 274.7 -75.3 Q 275.7 -73.9 275.7 -72.2 L 275.7 -72.2 L 275.7 -72.2 Q 275.7 -70.5 274.9 -69.1 L 274.9 -69.1 L 274.9 -69.1 Q 274.2 -67.6 273 -66.5 L 273 -66.5 L 273 -66.5 Q 270.3 -63.9 266.9 -63.9 L 266.9 -63.9 L 266.9 -63.9 Q 265.6 -63.9 264.3 -64.4 L 264.3 -64.4 L 264.3 -64.4 Q 264.5 -66.3 264.5 -68.5 L 264.5 -68.5 L 264.5 -68.5 Q 264.5 -70.8 264.4 -71.8 L 264.4 -71.8 L 264.4 -71.8 Q 264.2 -72.8 263.8 -73.6 L 263.8 -73.6 L 263.8 -73.6 Q 263 -75.4 261.2 -75.4 L 261.2 -75.4 L 261.2 -75.4 Q 259.4 -75.4 257.3 -73.4 L 257.3 -73.4 L 257.3 -73.4 Q 255.3 -71.5 253.7 -68.3 L 253.7 -68.3 L 253.7 -68.3 Q 250.2 -61.1 250.2 -52.4 L 250.2 -52.4 L 250.2 -52.4 Q 250.2 -48.5 251.7 -45.7 L 251.7 -45.7 L 251.7 -45.7 Q 253.4 -42.6 256.3 -42.6 L 256.3 -42.6 L 256.3 -42.6 Q 257.4 -42.6 258.3 -43.1 L 258.3 -43.1 L 258.3 -43.1 Q 259.2 -43.6 259.6 -44 L 259.6 -44 L 261.7 -56.9 Z M 280.5 -38.2 L 280.5 -38.2 L 280.5 -38.2 Q 279 -39.8 278.3 -42.5 L 278.3 -42.5 L 278.3 -42.5 Q 277.7 -45.1 277.7 -49.4 L 277.7 -49.4 L 277.7 -49.4 Q 277.7 -53.7 279.1 -57.6 L 279.1 -57.6 L 279.1 -57.6 Q 280.6 -61.5 283.3 -64.3 L 283.3 -64.3 L 283.3 -64.3 Q 288.8 -70.2 297.9 -70.2 L 297.9 -70.2 L 297.9 -70.2 Q 301.1 -70.2 303.5 -69.1 L 303.5 -69.1 L 314.5 -70.2 L 309.7 -45.2 L 309.7 -45.2 Q 309.5 -44.4 309.5 -43 L 309.5 -43 L 309.5 -43 Q 309.5 -41.6 310.4 -40.7 L 310.4 -40.7 L 310.4 -40.7 Q 311.3 -39.8 312.5 -39.7 L 312.5 -39.7 L 312.5 -39.7 Q 311.9 -37.5 309.6 -36.3 L 309.6 -36.3 L 309.6 -36.3 Q 307.2 -35 304.6 -35 L 304.6 -35 L 304.6 -35 Q 302 -35 300.2 -36 L 300.2 -36 L 300.2 -36 Q 298.5 -37 297.9 -38.6 L 297.9 -38.6 L 297.9 -38.6 Q 296.9 -37 294.7 -36 L 294.7 -36 L 294.7 -36 Q 292.6 -35 289.7 -35 L 289.7 -35 L 289.7 -35 Q 286.7 -35 284.4 -35.7 L 284.4 -35.7 L 284.4 -35.7 Q 282 -36.5 280.5 -38.2 Z M 294 -64.2 L 294 -64.2 L 294 -64.2 Q 293.3 -63 292.6 -61.1 L 292.6 -61.1 L 292.6 -61.1 Q 292 -59.1 290.9 -53.9 L 290.9 -53.9 L 290.9 -53.9 Q 289.9 -48.7 289.9 -45 L 289.9 -45 L 289.9 -45 Q 289.9 -41.2 290.5 -40.2 L 290.5 -40.2 L 290.5 -40.2 Q 291 -39.1 292.1 -39.1 L 292.1 -39.1 L 292.1 -39.1 Q 294.1 -39.1 295.6 -41 L 295.6 -41 L 295.6 -41 Q 297.1 -43 297.7 -46.4 L 297.7 -46.4 L 301.1 -65.2 L 301.1 -65.2 Q 299.7 -66.3 298.2 -66.3 L 298.2 -66.3 L 298.2 -66.3 Q 296.6 -66.3 295.7 -65.8 L 295.7 -65.8 L 295.7 -65.8 Q 294.7 -65.3 294 -64.2 Z M 333.2 -39.8 L 333.2 -39.8 L 333.2 -39.8 Q 331.2 -35 324.9 -35 L 324.9 -35 L 324.9 -35 Q 321.7 -35 319.6 -37.2 L 319.6 -37.2 L 319.6 -37.2 Q 318 -39.1 318 -41.2 L 318 -41.2 L 318 -41.2 Q 318 -46 320.2 -56.5 L 320.2 -56.5 L 324.9 -81.1 L 337.9 -82.3 L 331.7 -50 L 331.7 -50 Q 330.6 -45.2 330.6 -43.6 L 330.6 -43.6 L 330.6 -43.6 Q 330.6 -39.9 333.2 -39.8 Z M 353.9 -39.8 L 353.9 -39.8 L 353.9 -39.8 Q 352 -35 345.6 -35 L 345.6 -35 L 345.6 -35 Q 342.4 -35 340.4 -37.2 L 340.4 -37.2 L 340.4 -37.2 Q 338.7 -39.1 338.7 -41.2 L 338.7 -41.2 L 338.7 -41.2 Q 338.7 -46 341 -56.5 L 341 -56.5 L 345.6 -81.1 L 358.6 -82.3 L 352.4 -50 L 352.4 -50 Q 351.3 -45.2 351.3 -43.6 L 351.3 -43.6 L 351.3 -43.6 Q 351.3 -39.9 353.9 -39.8 Z M 385.3 -47.1 L 385.3 -47.1 L 385.3 -47.1 Q 386.9 -46 386.9 -43.6 L 386.9 -43.6 L 386.9 -43.6 Q 386.9 -41.2 385.7 -39.6 L 385.7 -39.6 L 385.7 -39.6 Q 384.5 -38.1 382.5 -37.1 L 382.5 -37.1 L 382.5 -37.1 Q 378.4 -35 374 -35 L 374 -35 L 374 -35 Q 369.6 -35 367 -35.9 L 367 -35.9 L 367 -35.9 Q 364.4 -36.9 362.6 -38.7 L 362.6 -38.7 L 362.6 -38.7 Q 359.3 -42.1 359.3 -48.3 L 359.3 -48.3 L 359.3 -48.3 Q 359.3 -58 364.5 -63.8 L 364.5 -63.8 L 364.5 -63.8 Q 370.1 -70.2 379.9 -70.2 L 379.9 -70.2 L 379.9 -70.2 Q 386 -70.2 389 -67.6 L 389 -67.6 L 389 -67.6 Q 391.3 -65.7 391.3 -62.6 L 391.3 -62.6 L 391.3 -62.6 Q 391.3 -51.3 371.8 -51.3 L 371.8 -51.3 L 371.8 -51.3 Q 371.5 -49.6 371.5 -48.2 L 371.5 -48.2 L 371.5 -48.2 Q 371.5 -45.3 372.9 -44.2 L 372.9 -44.2 L 372.9 -44.2 Q 374.2 -43 376.6 -43 L 376.6 -43 L 376.6 -43 Q 379 -43 381.6 -44.2 L 381.6 -44.2 L 381.6 -44.2 Q 384.2 -45.3 385.3 -47.1 Z M 372.2 -54 L 372.2 -54 L 372.2 -54 Q 376.8 -54 379.4 -56.9 L 379.4 -56.9 L 379.4 -56.9 Q 382 -59.6 382 -63.8 L 382 -63.8 L 382 -63.8 Q 382 -65.3 381.5 -66.1 L 381.5 -66.1 L 381.5 -66.1 Q 381 -66.9 379.9 -66.9 L 379.9 -66.9 L 379.9 -66.9 Q 378.8 -66.9 377.8 -66.5 L 377.8 -66.5 L 377.8 -66.5 Q 376.9 -66.1 376 -64.7 L 376 -64.7 L 376 -64.7 Q 373.6 -61.5 372.2 -54 Z M 413.5 -54.2 L 413.5 -54.2 L 413.5 -54.2 Q 415.8 -58.3 415.8 -62.5 L 415.8 -62.5 L 415.8 -62.5 Q 415.8 -65.2 413.8 -65.2 L 413.8 -65.2 L 413.8 -65.2 Q 412.2 -65.2 410.6 -62.6 L 410.6 -62.6 L 410.6 -62.6 Q 409 -60 408.5 -56.6 L 408.5 -56.6 L 405.1 -36.3 L 391.9 -35 L 398.4 -68.9 L 409 -70.2 L 407.8 -63.7 L 407.8 -63.7 Q 411 -70.2 418 -70.2 L 418 -70.2 L 418 -70.2 Q 421.7 -70.2 423.7 -68.3 L 423.7 -68.3 L 423.7 -68.3 Q 425.8 -66.3 425.8 -62.4 L 425.8 -62.4 L 425.8 -62.4 Q 425.8 -58.5 423.2 -56 L 423.2 -56 L 423.2 -56 Q 420.6 -53.5 416.2 -53.5 L 416.2 -53.5 L 416.2 -53.5 Q 414.2 -53.5 413.5 -54.2 Z M 447.1 -43.5 L 447.1 -43.5 L 447.1 -43.5 Q 443.8 -40 437.7 -40 L 437.7 -40 L 437.7 -40 Q 430.1 -40 428.5 -45.6 L 428.5 -45.6 L 428.5 -45.6 Q 428 -47.3 428 -49.1 L 428 -49.1 L 428 -49.1 Q 428 -51 428.4 -52.9 L 428.4 -52.9 L 431.4 -68.9 L 444.4 -70.2 L 440.9 -51.6 L 440.9 -51.6 Q 440.7 -50.7 440.5 -49.8 L 440.5 -49.8 L 440.5 -49.8 Q 440.3 -48.9 440.3 -48 L 440.3 -48 L 440.3 -48 Q 440.3 -47.1 440.7 -46.5 L 440.7 -46.5 L 440.7 -46.5 Q 441 -45.9 441.4 -45.5 L 441.4 -45.5 L 441.4 -45.5 Q 442.2 -45 443.6 -45 L 443.6 -45 L 443.6 -45 Q 445 -45 446.1 -46.6 L 446.1 -46.6 L 446.1 -46.6 Q 447.3 -48.3 447.9 -51.2 L 447.9 -51.2 L 451.4 -68.9 L 464 -70.2 L 459.2 -45 L 459.2 -45 Q 456.9 -32.7 452 -27.9 L 452 -27.9 L 452 -27.9 Q 449.5 -25.4 446.3 -24.4 L 446.3 -24.4 L 446.3 -24.4 Q 443 -23.4 438.9 -23.4 L 438.9 -23.4 L 438.9 -23.4 Q 432.2 -23.4 428.3 -25.5 L 428.3 -25.5 L 428.3 -25.5 Q 424.5 -27.6 424.5 -31.1 L 424.5 -31.1 L 424.5 -31.1 Q 424.5 -33.8 426.5 -35.3 L 426.5 -35.3 L 426.5 -35.3 Q 428.4 -36.8 431.5 -36.8 L 431.5 -36.8 L 431.5 -36.8 Q 434.2 -36.8 436.2 -35.6 L 436.2 -35.6 L 436.2 -35.6 Q 437.5 -34.9 438 -34 L 438 -34 L 438 -34 Q 436.6 -32.7 436.6 -30.6 L 436.6 -30.6 L 436.6 -30.6 Q 436.6 -27.8 439.1 -27.8 L 439.1 -27.8 L 439.1 -27.8 Q 443.4 -27.8 445.8 -37.5 L 445.8 -37.5 L 445.8 -37.5 Q 446.5 -40.4 447.1 -43.5 Z" fill="url(#editing-gradient-gradient)"></path></g></g><style>text {
  font-size: 64px;
  font-family: Arial Black;
  dominant-baseline: central;
  text-anchor: middle;
}</style></svg>